<svg width="185" height="40" viewBox="0 0 185 40" fill="none" xmlns="http://www.w3.org/2000/svg">
<path fill-rule="evenodd" clip-rule="evenodd" d="M3 0C1.34315 0 0 1.34315 0 3V37C0 38.6569 1.34315 40 3 40H182C183.657 40 185 38.6569 185 37V3C185 1.34315 183.657 0 182 0H3Z" fill="white"/>
<path fill-rule="evenodd" clip-rule="evenodd" d="M32.64 20.2045C32.64 19.5664 32.5827 18.9527 32.4764 18.3636H24V21.845H28.8436C28.635 22.97 28.0009 23.9232 27.0477 24.5614V26.8195H29.9564C31.6582 25.2527 32.64 22.9455 32.64 20.2045Z" fill="#4285F4"/>
<path fill-rule="evenodd" clip-rule="evenodd" d="M24 29C26.43 29 28.4673 28.1941 29.9564 26.8195L27.0477 24.5614C26.2418 25.1014 25.2109 25.4205 24 25.4205C21.6559 25.4205 19.6718 23.8373 18.9641 21.71H15.9573V24.0418C17.4382 26.9832 20.4818 29 24 29Z" fill="#34A853"/>
<path fill-rule="evenodd" clip-rule="evenodd" d="M18.9641 21.71C18.7841 21.17 18.6818 20.5932 18.6818 20C18.6818 19.4068 18.7841 18.83 18.9641 18.29V15.9582H15.9573C15.3477 17.1732 15 18.5477 15 20C15 21.4523 15.3477 22.8268 15.9573 24.0418L18.9641 21.71Z" fill="#FBBC05"/>
<path fill-rule="evenodd" clip-rule="evenodd" d="M24 14.5795C25.3214 14.5795 26.5077 15.0336 27.4405 15.9255L30.0218 13.3441C28.4632 11.8918 26.4259 11 24 11C20.4818 11 17.4382 13.0168 15.9573 15.9582L18.9641 18.29C19.6718 16.1627 21.6559 14.5795 24 14.5795Z" fill="#EA4335"/>
<path d="M52.2139 22.4365C52.2139 21.999 52.0589 21.6618 51.749 21.4248C51.4437 21.1878 50.89 20.9486 50.0879 20.707C49.2858 20.4655 48.6478 20.1966 48.1738 19.9004C47.2669 19.3307 46.8135 18.5879 46.8135 17.6719C46.8135 16.8698 47.1393 16.209 47.791 15.6895C48.4473 15.1699 49.2972 14.9102 50.3408 14.9102C51.0335 14.9102 51.651 15.0378 52.1934 15.293C52.7357 15.5482 53.1618 15.9128 53.4717 16.3867C53.7816 16.8561 53.9365 17.3779 53.9365 17.9521H52.2139C52.2139 17.4326 52.0498 17.027 51.7217 16.7354C51.3981 16.4391 50.9333 16.291 50.3271 16.291C49.762 16.291 49.3223 16.4118 49.0078 16.6533C48.6979 16.8949 48.543 17.2321 48.543 17.665C48.543 18.0296 48.7116 18.335 49.0488 18.5811C49.3861 18.8226 49.9421 19.0596 50.7168 19.292C51.4915 19.5199 52.1136 19.7819 52.583 20.0781C53.0524 20.3698 53.3965 20.707 53.6152 21.0898C53.834 21.4681 53.9434 21.9124 53.9434 22.4229C53.9434 23.2523 53.6243 23.9131 52.9863 24.4053C52.3529 24.8929 51.4915 25.1367 50.4023 25.1367C49.6823 25.1367 49.0192 25.0046 48.4131 24.7402C47.8115 24.4714 47.3421 24.1022 47.0049 23.6328C46.6722 23.1634 46.5059 22.6165 46.5059 21.9922H48.2354C48.2354 22.5573 48.4222 22.9948 48.7959 23.3047C49.1696 23.6146 49.7051 23.7695 50.4023 23.7695C51.0039 23.7695 51.4551 23.6488 51.7559 23.4072C52.0612 23.1611 52.2139 22.8376 52.2139 22.4365ZM57.2861 25H55.625V17.6035H57.2861V25ZM55.5225 15.6826C55.5225 15.4274 55.6022 15.2155 55.7617 15.0469C55.9258 14.8783 56.1582 14.7939 56.459 14.7939C56.7598 14.7939 56.9922 14.8783 57.1562 15.0469C57.3203 15.2155 57.4023 15.4274 57.4023 15.6826C57.4023 15.9333 57.3203 16.1429 57.1562 16.3115C56.9922 16.4756 56.7598 16.5576 56.459 16.5576C56.1582 16.5576 55.9258 16.4756 55.7617 16.3115C55.6022 16.1429 55.5225 15.9333 55.5225 15.6826ZM59.0293 21.2471C59.0293 20.0986 59.2982 19.1826 59.8359 18.499C60.3783 17.8109 61.096 17.4668 61.9893 17.4668C62.8324 17.4668 63.4954 17.7607 63.9785 18.3486L64.0537 17.6035H65.5508V24.7744C65.5508 25.7451 65.2477 26.5107 64.6416 27.0713C64.04 27.6318 63.2266 27.9121 62.2012 27.9121C61.6589 27.9121 61.1279 27.7982 60.6084 27.5703C60.0934 27.347 59.7015 27.0531 59.4326 26.6885L60.2188 25.6904C60.7292 26.2965 61.3581 26.5996 62.1055 26.5996C62.6569 26.5996 63.0921 26.4492 63.4111 26.1484C63.7301 25.8522 63.8896 25.4147 63.8896 24.8359V24.3369C63.4111 24.8701 62.7731 25.1367 61.9756 25.1367C61.1097 25.1367 60.401 24.7926 59.8496 24.1045C59.3027 23.4163 59.0293 22.4639 59.0293 21.2471ZM60.6836 21.3906C60.6836 22.1335 60.834 22.7191 61.1348 23.1475C61.4401 23.5713 61.8617 23.7832 62.3994 23.7832C63.0693 23.7832 63.5661 23.4961 63.8896 22.9219V19.668C63.5752 19.1074 63.083 18.8271 62.4131 18.8271C61.8662 18.8271 61.4401 19.0436 61.1348 19.4766C60.834 19.9095 60.6836 20.5475 60.6836 21.3906ZM69.0234 17.6035L69.0713 18.458C69.6182 17.7972 70.3359 17.4668 71.2246 17.4668C72.765 17.4668 73.5488 18.3486 73.5762 20.1123V25H71.915V20.208C71.915 19.7386 71.8125 19.3923 71.6074 19.1689C71.4069 18.9411 71.0765 18.8271 70.6162 18.8271C69.9463 18.8271 69.4473 19.1302 69.1191 19.7363V25H67.458V17.6035H69.0234ZM80.9658 25H79.3047V17.6035H80.9658V25ZM79.2021 15.6826C79.2021 15.4274 79.2819 15.2155 79.4414 15.0469C79.6055 14.8783 79.8379 14.7939 80.1387 14.7939C80.4395 14.7939 80.6719 14.8783 80.8359 15.0469C81 15.2155 81.082 15.4274 81.082 15.6826C81.082 15.9333 81 16.1429 80.8359 16.3115C80.6719 16.4756 80.4395 16.5576 80.1387 16.5576C79.8379 16.5576 79.6055 16.4756 79.4414 16.3115C79.2819 16.1429 79.2021 15.9333 79.2021 15.6826ZM84.541 17.6035L84.5889 18.458C85.1357 17.7972 85.8535 17.4668 86.7422 17.4668C88.2826 17.4668 89.0664 18.3486 89.0938 20.1123V25H87.4326V20.208C87.4326 19.7386 87.3301 19.3923 87.125 19.1689C86.9245 18.9411 86.5941 18.8271 86.1338 18.8271C85.4639 18.8271 84.9648 19.1302 84.6367 19.7363V25H82.9756V17.6035H84.541ZM101.214 22.71L102.39 17.6035H104.01L101.993 25H100.626L99.04 19.9209L97.4814 25H96.1143L94.0908 17.6035H95.7109L96.9072 22.6553L98.4248 17.6035H99.6758L101.214 22.71ZM107.106 25H105.445V17.6035H107.106V25ZM105.343 15.6826C105.343 15.4274 105.423 15.2155 105.582 15.0469C105.746 14.8783 105.979 14.7939 106.279 14.7939C106.58 14.7939 106.812 14.8783 106.977 15.0469C107.141 15.2155 107.223 15.4274 107.223 15.6826C107.223 15.9333 107.141 16.1429 106.977 16.3115C106.812 16.4756 106.58 16.5576 106.279 16.5576C105.979 16.5576 105.746 16.4756 105.582 16.3115C105.423 16.1429 105.343 15.9333 105.343 15.6826ZM111.222 15.8057V17.6035H112.527V18.834H111.222V22.9629C111.222 23.2454 111.276 23.4505 111.386 23.5781C111.5 23.7012 111.7 23.7627 111.987 23.7627C112.179 23.7627 112.372 23.7399 112.568 23.6943V24.9795C112.19 25.0843 111.826 25.1367 111.475 25.1367C110.199 25.1367 109.561 24.4326 109.561 23.0244V18.834H108.344V17.6035H109.561V15.8057H111.222ZM115.658 18.4102C116.201 17.7812 116.886 17.4668 117.716 17.4668C119.293 17.4668 120.092 18.3669 120.115 20.167V25H118.454V20.2285C118.454 19.7181 118.342 19.3581 118.119 19.1484C117.9 18.9342 117.577 18.8271 117.148 18.8271C116.483 18.8271 115.986 19.1234 115.658 19.7158V25H113.997V14.5H115.658V18.4102ZM133.514 23.708C133.154 24.1774 132.655 24.5329 132.017 24.7744C131.379 25.016 130.654 25.1367 129.843 25.1367C129.009 25.1367 128.271 24.9476 127.628 24.5693C126.985 24.1911 126.489 23.651 126.138 22.9492C125.791 22.2428 125.611 21.4202 125.598 20.4814V19.7021C125.598 18.1982 125.958 17.0247 126.678 16.1816C127.398 15.334 128.403 14.9102 129.692 14.9102C130.8 14.9102 131.679 15.1836 132.331 15.7305C132.983 16.2773 133.375 17.0658 133.507 18.0957H131.812C131.62 16.8971 130.925 16.2979 129.727 16.2979C128.952 16.2979 128.362 16.5781 127.956 17.1387C127.555 17.6947 127.348 18.5127 127.334 19.5928V20.3584C127.334 21.4339 127.56 22.2702 128.011 22.8672C128.466 23.4596 129.098 23.7559 129.904 23.7559C130.788 23.7559 131.417 23.5553 131.791 23.1543V21.2061H129.74V19.8936H133.514V23.708ZM135.161 21.2334C135.161 20.5088 135.305 19.8571 135.592 19.2783C135.879 18.695 136.282 18.2484 136.802 17.9385C137.321 17.624 137.918 17.4668 138.593 17.4668C139.591 17.4668 140.4 17.7881 141.02 18.4307C141.644 19.0732 141.981 19.9255 142.031 20.9873L142.038 21.377C142.038 22.1061 141.897 22.7578 141.614 23.332C141.336 23.9062 140.935 24.3506 140.411 24.665C139.892 24.9795 139.29 25.1367 138.606 25.1367C137.563 25.1367 136.727 24.7904 136.098 24.0977C135.473 23.4004 135.161 22.473 135.161 21.3154V21.2334ZM136.822 21.377C136.822 22.138 136.979 22.735 137.294 23.168C137.608 23.5964 138.046 23.8105 138.606 23.8105C139.167 23.8105 139.602 23.5918 139.912 23.1543C140.227 22.7168 140.384 22.0765 140.384 21.2334C140.384 20.486 140.222 19.8936 139.898 19.4561C139.579 19.0186 139.144 18.7998 138.593 18.7998C138.05 18.7998 137.62 19.0163 137.301 19.4492C136.982 19.8776 136.822 20.5202 136.822 21.377ZM143.351 21.2334C143.351 20.5088 143.494 19.8571 143.781 19.2783C144.068 18.695 144.472 18.2484 144.991 17.9385C145.511 17.624 146.108 17.4668 146.782 17.4668C147.78 17.4668 148.589 17.7881 149.209 18.4307C149.833 19.0732 150.171 19.9255 150.221 20.9873L150.228 21.377C150.228 22.1061 150.086 22.7578 149.804 23.332C149.526 23.9062 149.125 24.3506 148.601 24.665C148.081 24.9795 147.479 25.1367 146.796 25.1367C145.752 25.1367 144.916 24.7904 144.287 24.0977C143.663 23.4004 143.351 22.473 143.351 21.3154V21.2334ZM145.012 21.377C145.012 22.138 145.169 22.735 145.483 23.168C145.798 23.5964 146.235 23.8105 146.796 23.8105C147.356 23.8105 147.792 23.5918 148.102 23.1543C148.416 22.7168 148.573 22.0765 148.573 21.2334C148.573 20.486 148.411 19.8936 148.088 19.4561C147.769 19.0186 147.334 18.7998 146.782 18.7998C146.24 18.7998 145.809 19.0163 145.49 19.4492C145.171 19.8776 145.012 20.5202 145.012 21.377ZM151.561 21.2471C151.561 20.0986 151.829 19.1826 152.367 18.499C152.91 17.8109 153.627 17.4668 154.521 17.4668C155.364 17.4668 156.027 17.7607 156.51 18.3486L156.585 17.6035H158.082V24.7744C158.082 25.7451 157.779 26.5107 157.173 27.0713C156.571 27.6318 155.758 27.9121 154.732 27.9121C154.19 27.9121 153.659 27.7982 153.14 27.5703C152.625 27.347 152.233 27.0531 151.964 26.6885L152.75 25.6904C153.26 26.2965 153.889 26.5996 154.637 26.5996C155.188 26.5996 155.623 26.4492 155.942 26.1484C156.261 25.8522 156.421 25.4147 156.421 24.8359V24.3369C155.942 24.8701 155.304 25.1367 154.507 25.1367C153.641 25.1367 152.932 24.7926 152.381 24.1045C151.834 23.4163 151.561 22.4639 151.561 21.2471ZM153.215 21.3906C153.215 22.1335 153.365 22.7191 153.666 23.1475C153.971 23.5713 154.393 23.7832 154.931 23.7832C155.601 23.7832 156.097 23.4961 156.421 22.9219V19.668C156.106 19.1074 155.614 18.8271 154.944 18.8271C154.397 18.8271 153.971 19.0436 153.666 19.4766C153.365 19.9095 153.215 20.5475 153.215 21.3906ZM161.78 25H160.119V14.5H161.78V25ZM167.071 25.1367C166.019 25.1367 165.164 24.8063 164.508 24.1455C163.856 23.4801 163.53 22.596 163.53 21.4932V21.2881C163.53 20.5498 163.672 19.8913 163.954 19.3125C164.241 18.7292 164.642 18.2757 165.157 17.9521C165.672 17.6286 166.246 17.4668 166.88 17.4668C167.887 17.4668 168.664 17.7881 169.211 18.4307C169.762 19.0732 170.038 19.9824 170.038 21.1582V21.8281H165.205C165.255 22.4388 165.458 22.9219 165.813 23.2773C166.174 23.6328 166.625 23.8105 167.167 23.8105C167.928 23.8105 168.548 23.5029 169.026 22.8877L169.922 23.7422C169.626 24.1842 169.229 24.5283 168.732 24.7744C168.24 25.016 167.687 25.1367 167.071 25.1367ZM166.873 18.7998C166.417 18.7998 166.048 18.9593 165.766 19.2783C165.488 19.5973 165.31 20.0417 165.232 20.6113H168.397V20.4883C168.361 19.9323 168.213 19.513 167.953 19.2305C167.693 18.9434 167.333 18.7998 166.873 18.7998Z" fill="black" fill-opacity="0.54"/>
</svg>
